# xmcd CD database file
#
# Track frame offsets:
#	150
#	18460
#	43504
#	69528
#	94186
#	118302
#	151821
#	181464
#	215990
#	241154
#	279348
#	290837
#
# Disc length: 4213 seconds
#
# Revision: 0
# Processed by: cddbd v1.5.2PL0 Copyright (c) Steve Scherf et al.
# Submitted via: CDex 2.00
#
DISCID=b410730c
DTITLE=Tria Lingvo - Inter Stando
DYEAR=2017
DGENRE=Jazz
TTITLE0=Kyrillis
TTITLE1=News From Wolverhampton 
TTITLE2=It's So Neat 
TTITLE3=Steve's Wonderous Walk
TTITLE4=With a Pirate Smile
TTITLE5=Malev
TTITLE6=Mr Funny Hat
TTITLE7=Dahabib
TTITLE8=Humming
TTITLE9=Fool's Hands Hope
TTITLE10=Bogdan
TTITLE11=El Arte
EXTD=YEAR: 2017
EXTT0=
EXTT1=
EXTT2=
EXTT3=
EXTT4=
EXTT5=
EXTT6=
EXTT7=
EXTT8=
EXTT9=
EXTT10=
EXTT11=
PLAYORDER=
